<svg width="154" height="23" viewBox="0 0 154 23" fill="none" xmlns="http://www.w3.org/2000/svg">
<path d="M25.393 13.864V19.36H9.19297V20.056H25.753V22.936H2.59297V17.2H18.793V16.504H2.47297V13.864H25.393ZM0.43297 1.096C6.14497 0.639999 13.081 0.639999 18.793 1.096L18.553 5.392L16.345 5.248C16.177 6.304 16.129 7.432 16.153 8.512C17.185 8.464 18.121 8.416 18.793 8.368L19.033 12.736C16.273 12.976 12.121 13.144 8.78497 13.144C3.09697 13.144 1.15297 11.992 1.15297 8.608C1.15297 7.528 1.24897 6.448 1.44097 5.344C1.17697 5.344 0.93697 5.368 0.67297 5.392L0.43297 1.096ZM7.29697 7.576C7.29697 8.536 7.51297 8.704 8.71297 8.704C9.14497 8.704 9.67297 8.704 10.249 8.68C10.225 7.552 10.345 6.256 10.537 5.08C9.52897 5.056 8.52097 5.08 7.51297 5.08C7.34497 6.04 7.29697 6.76 7.29697 7.576ZM19.753 13.264V0.663999H25.393V4.624H26.833V10.144H25.393V13.264H19.753ZM34.1558 15.16H57.0758V22.936H50.2358V19.6H34.1558V15.16ZM32.2358 1.312C35.6678 0.927999 40.3718 0.639999 43.4438 0.639999C48.8198 0.639999 50.5958 1.768 50.5958 5.176C50.5958 8.104 49.9718 10.888 48.3638 14.56L42.3878 13.888C43.7798 10.024 44.3798 8.224 44.3798 7.096C44.3798 6.112 43.9478 5.776 42.8198 5.776C42.4358 5.776 41.9318 5.776 41.3318 5.8C40.9478 8.512 40.0838 11.56 38.8118 14.44L32.9558 13.768C34.0358 10.84 34.8038 8.176 35.1878 6.088C34.2518 6.136 33.4118 6.208 32.7158 6.256L32.2358 1.312ZM51.1958 14.56V0.663999H57.0758V5.176H58.5158V10.816H57.0758V14.56H51.1958Z" fill="#006E7F"/>
<path d="M82.0386 0.663999H88.5186V8.08H90.1986V14.08H88.5186V22.936H82.0386V0.663999ZM64.1586 21.832C64.1586 8.296 64.8546 5.152 67.1586 1.072H73.7586C73.0866 2.512 72.5586 3.808 72.1506 5.152C73.3026 4.864 74.4546 4.72 75.4626 4.72C79.7346 4.72 81.1746 6.76 81.1746 12.808V21.808L74.6946 22.048V12.688C74.6946 11.224 74.2386 10.72 72.8466 10.72C72.3426 10.72 71.7186 10.792 70.9986 10.984C70.7346 13.768 70.6386 17.224 70.6386 22.072L64.1586 21.832ZM114.201 0.543999L120.921 0.663999V17.176H114.201V0.543999ZM96.3214 15.04C96.3214 9.184 96.9934 7.384 98.8174 5.704H96.4414V1.144H113.217V5.704H105.153C104.817 6.088 104.505 6.448 104.241 6.808C105.369 6.544 106.449 6.424 107.625 6.424C111.801 6.424 113.337 7.576 113.337 10.504V15.04L107.217 15.28V12.592C107.217 11.728 106.953 11.248 105.489 11.248C104.625 11.248 103.593 11.392 102.561 11.776C102.465 12.76 102.441 13.912 102.441 15.28L96.3214 15.04ZM98.1214 22.936V16H104.961V18.016H121.401V22.936H98.1214ZM137.796 10.984C138.444 8.872 138.66 7.864 138.66 7.168C138.66 6.136 138.276 5.872 136.62 5.872C134.388 5.872 132.588 6.016 128.292 6.448L127.884 1.744C131.772 1.12 134.868 0.831999 137.628 0.831999C143.508 0.831999 145.02 1.816 145.02 5.656C145.02 7.504 144.588 9.544 143.964 11.368L137.796 10.984ZM127.284 16.168V11.968H130.284V7.888H136.524V11.968H146.004V0.663999H152.124V7.12H153.564V13.12H152.124V17.536H146.004V16.168H127.284ZM128.484 22.936V16.768H135.564V18.376H152.604V22.936H128.484Z" fill="#B22727"/>
</svg>
