<svg width="100%" height="100%" viewBox="0 0 265 46" fill="none" xmlns="http://www.w3.org/2000/svg">
<g filter="url(#filter0_d_496_1856)">
<mask id="path-1-outside-1_496_1856" maskUnits="userSpaceOnUse" x="4" y="0" width="257" height="38" fill="black">
<rect fill="white" x="4" width="257" height="38"/>
<path d="M46.4883 22.44V31.6H19.4883V32.76H47.0883V37.56H8.48828V28H35.4883V26.84H8.28828V22.44H46.4883ZM4.88828 1.16C14.4083 0.399998 25.9683 0.399998 35.4883 1.16L35.0883 8.32L31.4083 8.08C31.1283 9.84 31.0483 11.72 31.0883 13.52C32.8083 13.44 34.3683 13.36 35.4883 13.28L35.8883 20.56C31.2883 20.96 24.3683 21.24 18.8083 21.24C9.32828 21.24 6.08828 19.32 6.08828 13.68C6.08828 11.88 6.24828 10.08 6.56828 8.24C6.12828 8.24 5.72828 8.28 5.28828 8.32L4.88828 1.16ZM16.3283 11.96C16.3283 13.56 16.6883 13.84 18.6883 13.84C19.4083 13.84 20.2883 13.84 21.2483 13.8C21.2083 11.92 21.4083 9.76 21.7283 7.8C20.0483 7.76 18.3683 7.8 16.6883 7.8C16.4083 9.4 16.3283 10.6 16.3283 11.96ZM37.0883 21.44V0.439998H46.4883V7.04H48.8883V16.24H46.4883V21.44H37.0883ZM61.093 24.6H99.293V37.56H87.893V32H61.093V24.6ZM57.893 1.52C63.613 0.879999 71.453 0.399998 76.573 0.399998C85.533 0.399998 88.493 2.28 88.493 7.96C88.493 12.84 87.453 17.48 84.773 23.6L74.813 22.48C77.133 16.04 78.133 13.04 78.133 11.16C78.133 9.52 77.413 8.96 75.533 8.96C74.893 8.96 74.053 8.96 73.053 9C72.413 13.52 70.973 18.6 68.853 23.4L59.093 22.28C60.893 17.4 62.173 12.96 62.813 9.48C61.253 9.56 59.853 9.68 58.693 9.76L57.893 1.52ZM89.493 23.6V0.439998H99.293V7.96H101.693V17.36H99.293V23.6H89.493Z"/>
<path d="M140.898 0.439998H151.698V12.8H154.498V22.8H151.698V37.56H140.898V0.439998ZM111.098 35.72C111.098 13.16 112.258 7.92 116.098 1.12H127.098C125.978 3.52 125.098 5.68 124.418 7.92C126.338 7.44 128.258 7.2 129.938 7.2C137.058 7.2 139.458 10.6 139.458 20.68V35.68L128.658 36.08V20.48C128.658 18.04 127.898 17.2 125.578 17.2C124.738 17.2 123.698 17.32 122.498 17.64C122.058 22.28 121.898 28.04 121.898 36.12L111.098 35.72ZM194.502 0.239998L205.702 0.439998V27.96H194.502V0.239998ZM164.702 24.4C164.702 14.64 165.822 11.64 168.862 8.84H164.902V1.24H192.862V8.84H179.422C178.862 9.48 178.342 10.08 177.902 10.68C179.782 10.24 181.582 10.04 183.542 10.04C190.502 10.04 193.062 11.96 193.062 16.84V24.4L182.862 24.8V20.32C182.862 18.88 182.422 18.08 179.982 18.08C178.542 18.08 176.822 18.32 175.102 18.96C174.942 20.6 174.902 22.52 174.902 24.8L164.702 24.4ZM167.702 37.56V26H179.102V29.36H206.502V37.56H167.702ZM233.827 17.64C234.907 14.12 235.267 12.44 235.267 11.28C235.267 9.56 234.627 9.12 231.867 9.12C228.147 9.12 225.147 9.36 217.987 10.08L217.307 2.24C223.787 1.2 228.947 0.719999 233.547 0.719999C243.347 0.719999 245.867 2.36 245.867 8.76C245.867 11.84 245.147 15.24 244.107 18.28L233.827 17.64ZM216.307 26.28V19.28H221.307V12.48H231.707V19.28H247.507V0.439998H257.707V11.2H260.107V21.2H257.707V28.56H247.507V26.28H216.307ZM218.307 37.56V27.28H230.107V29.96H258.507V37.56H218.307Z"/>
</mask>
<path d="M46.4883 22.44V31.6H19.4883V32.76H47.0883V37.56H8.48828V28H35.4883V26.84H8.28828V22.44H46.4883ZM4.88828 1.16C14.4083 0.399998 25.9683 0.399998 35.4883 1.16L35.0883 8.32L31.4083 8.08C31.1283 9.84 31.0483 11.72 31.0883 13.52C32.8083 13.44 34.3683 13.36 35.4883 13.28L35.8883 20.56C31.2883 20.96 24.3683 21.24 18.8083 21.24C9.32828 21.24 6.08828 19.32 6.08828 13.68C6.08828 11.88 6.24828 10.08 6.56828 8.24C6.12828 8.24 5.72828 8.28 5.28828 8.32L4.88828 1.16ZM16.3283 11.96C16.3283 13.56 16.6883 13.84 18.6883 13.84C19.4083 13.84 20.2883 13.84 21.2483 13.8C21.2083 11.92 21.4083 9.76 21.7283 7.8C20.0483 7.76 18.3683 7.8 16.6883 7.8C16.4083 9.4 16.3283 10.6 16.3283 11.96ZM37.0883 21.44V0.439998H46.4883V7.04H48.8883V16.24H46.4883V21.44H37.0883ZM61.093 24.6H99.293V37.56H87.893V32H61.093V24.6ZM57.893 1.52C63.613 0.879999 71.453 0.399998 76.573 0.399998C85.533 0.399998 88.493 2.28 88.493 7.96C88.493 12.84 87.453 17.48 84.773 23.6L74.813 22.48C77.133 16.04 78.133 13.04 78.133 11.16C78.133 9.52 77.413 8.96 75.533 8.96C74.893 8.96 74.053 8.96 73.053 9C72.413 13.52 70.973 18.6 68.853 23.4L59.093 22.28C60.893 17.4 62.173 12.96 62.813 9.48C61.253 9.56 59.853 9.68 58.693 9.76L57.893 1.52ZM89.493 23.6V0.439998H99.293V7.96H101.693V17.36H99.293V23.6H89.493Z" fill="#006E7F" shape-rendering="crispEdges"/>
<path d="M140.898 0.439998H151.698V12.8H154.498V22.8H151.698V37.56H140.898V0.439998ZM111.098 35.72C111.098 13.16 112.258 7.92 116.098 1.12H127.098C125.978 3.52 125.098 5.68 124.418 7.92C126.338 7.44 128.258 7.2 129.938 7.2C137.058 7.2 139.458 10.6 139.458 20.68V35.68L128.658 36.08V20.48C128.658 18.04 127.898 17.2 125.578 17.2C124.738 17.2 123.698 17.32 122.498 17.64C122.058 22.28 121.898 28.04 121.898 36.12L111.098 35.72ZM194.502 0.239998L205.702 0.439998V27.96H194.502V0.239998ZM164.702 24.4C164.702 14.64 165.822 11.64 168.862 8.84H164.902V1.24H192.862V8.84H179.422C178.862 9.48 178.342 10.08 177.902 10.68C179.782 10.24 181.582 10.04 183.542 10.04C190.502 10.04 193.062 11.96 193.062 16.84V24.4L182.862 24.8V20.32C182.862 18.88 182.422 18.08 179.982 18.08C178.542 18.08 176.822 18.32 175.102 18.96C174.942 20.6 174.902 22.52 174.902 24.8L164.702 24.4ZM167.702 37.56V26H179.102V29.36H206.502V37.56H167.702ZM233.827 17.64C234.907 14.12 235.267 12.44 235.267 11.28C235.267 9.56 234.627 9.12 231.867 9.12C228.147 9.12 225.147 9.36 217.987 10.08L217.307 2.24C223.787 1.2 228.947 0.719999 233.547 0.719999C243.347 0.719999 245.867 2.36 245.867 8.76C245.867 11.84 245.147 15.24 244.107 18.28L233.827 17.64ZM216.307 26.28V19.28H221.307V12.48H231.707V19.28H247.507V0.439998H257.707V11.2H260.107V21.2H257.707V28.56H247.507V26.28H216.307ZM218.307 37.56V27.28H230.107V29.96H258.507V37.56H218.307Z" fill="#B22727" shape-rendering="crispEdges"/>
<path d="M46.4883 22.44H46.5883V22.34H46.4883V22.44ZM46.4883 31.6V31.7H46.5883V31.6H46.4883ZM19.4883 31.6V31.5H19.3883V31.6H19.4883ZM19.4883 32.76H19.3883V32.86H19.4883V32.76ZM47.0883 32.76H47.1883V32.66H47.0883V32.76ZM47.0883 37.56V37.66H47.1883V37.56H47.0883ZM8.48828 37.56H8.38828V37.66H8.48828V37.56ZM8.48828 28V27.9H8.38828V28H8.48828ZM35.4883 28V28.1H35.5883V28H35.4883ZM35.4883 26.84H35.5883V26.74H35.4883V26.84ZM8.28828 26.84H8.18828V26.94H8.28828V26.84ZM8.28828 22.44V22.34H8.18828V22.44H8.28828ZM4.88828 1.16L4.88032 1.06032L4.78299 1.06809L4.78844 1.16558L4.88828 1.16ZM35.4883 1.16L35.5881 1.16558L35.5936 1.06809L35.4962 1.06032L35.4883 1.16ZM35.0883 8.32L35.0818 8.41979L35.1825 8.42636L35.1881 8.32558L35.0883 8.32ZM31.4083 8.08L31.4148 7.98021L31.3238 7.97428L31.3095 8.06429L31.4083 8.08ZM31.0883 13.52L30.9883 13.5222L30.9906 13.6247L31.0929 13.6199L31.0883 13.52ZM35.4883 13.28L35.5881 13.2745L35.5826 13.173L35.4812 13.1803L35.4883 13.28ZM35.8883 20.56L35.8969 20.6596L35.9934 20.6512L35.9881 20.5545L35.8883 20.56ZM6.56828 8.24L6.6668 8.25713L6.68717 8.14H6.56828V8.24ZM5.28828 8.32L5.18844 8.32558L5.19421 8.42896L5.29733 8.41959L5.28828 8.32ZM21.2483 13.8L21.2524 13.8999L21.3503 13.8958L21.3483 13.7979L21.2483 13.8ZM21.7283 7.8L21.827 7.81611L21.8455 7.70276L21.7307 7.70003L21.7283 7.8ZM16.6883 7.8V7.7H16.6043L16.5898 7.78276L16.6883 7.8ZM37.0883 21.44H36.9883V21.54H37.0883V21.44ZM37.0883 0.439998V0.339998H36.9883V0.439998H37.0883ZM46.4883 0.439998H46.5883V0.339998H46.4883V0.439998ZM46.4883 7.04H46.3883V7.14H46.4883V7.04ZM48.8883 7.04H48.9883V6.94H48.8883V7.04ZM48.8883 16.24V16.34H48.9883V16.24H48.8883ZM46.4883 16.24V16.14H46.3883V16.24H46.4883ZM46.4883 21.44V21.54H46.5883V21.44H46.4883ZM46.3883 22.44V31.6H46.5883V22.44H46.3883ZM46.4883 31.5H19.4883V31.7H46.4883V31.5ZM19.3883 31.6V32.76H19.5883V31.6H19.3883ZM19.4883 32.86H47.0883V32.66H19.4883V32.86ZM46.9883 32.76V37.56H47.1883V32.76H46.9883ZM47.0883 37.46H8.48828V37.66H47.0883V37.46ZM8.58828 37.56V28H8.38828V37.56H8.58828ZM8.48828 28.1H35.4883V27.9H8.48828V28.1ZM35.5883 28V26.84H35.3883V28H35.5883ZM35.4883 26.74H8.28828V26.94H35.4883V26.74ZM8.38828 26.84V22.44H8.18828V26.84H8.38828ZM8.28828 22.54H46.4883V22.34H8.28828V22.54ZM4.89624 1.25968C14.4109 0.500104 25.9656 0.500104 35.4803 1.25968L35.4962 1.06032C25.9709 0.299892 14.4056 0.299892 4.88032 1.06032L4.89624 1.25968ZM35.3884 1.15442L34.9884 8.31442L35.1881 8.32558L35.5881 1.16558L35.3884 1.15442ZM35.0948 8.22021L31.4148 7.98021L31.4018 8.17979L35.0818 8.41979L35.0948 8.22021ZM31.3095 8.06429C31.0283 9.83183 30.9482 11.7181 30.9883 13.5222L31.1883 13.5178C31.1483 11.7219 31.2282 9.84816 31.507 8.09571L31.3095 8.06429ZM31.0929 13.6199C32.8129 13.5399 34.374 13.4598 35.4954 13.3797L35.4812 13.1803C34.3625 13.2602 32.8037 13.3401 31.0836 13.4201L31.0929 13.6199ZM35.3884 13.2855L35.7884 20.5655L35.9881 20.5545L35.5881 13.2745L35.3884 13.2855ZM35.8796 20.4604C31.2829 20.8601 24.3659 21.14 18.8083 21.14V21.34C24.3707 21.34 31.2936 21.0599 35.8969 20.6596L35.8796 20.4604ZM18.8083 21.14C14.0689 21.14 10.9138 20.6588 8.94435 19.489C7.96315 18.9062 7.27625 18.1523 6.83335 17.1985C6.38963 16.2429 6.18828 15.0812 6.18828 13.68H5.98828C5.98828 15.0988 6.19194 16.2921 6.65196 17.2827C7.11281 18.2752 7.82841 19.0588 8.84221 19.661C10.8628 20.8612 14.0677 21.34 18.8083 21.34V21.14ZM6.18828 13.68C6.18828 11.886 6.34774 10.0918 6.6668 8.25713L6.46976 8.22287C6.14882 10.0682 5.98828 11.874 5.98828 13.68H6.18828ZM6.56828 8.14C6.12278 8.14 5.7178 8.18054 5.27923 8.22041L5.29733 8.41959C5.73877 8.37946 6.13378 8.34 6.56828 8.34V8.14ZM5.38813 8.31442L4.98813 1.15442L4.78844 1.16558L5.18844 8.32558L5.38813 8.31442ZM16.2283 11.96C16.2283 12.7557 16.3142 13.275 16.6961 13.5783C16.885 13.7283 17.1365 13.8174 17.4597 13.87C17.783 13.9225 18.1871 13.94 18.6883 13.94V13.74C18.1894 13.74 17.7986 13.7224 17.4918 13.6725C17.185 13.6226 16.9716 13.5417 16.8205 13.4217C16.5224 13.185 16.4283 12.7643 16.4283 11.96H16.2283ZM18.6883 13.94C19.4082 13.94 20.2901 13.94 21.2524 13.8999L21.2441 13.7001C20.2865 13.74 19.4084 13.74 18.6883 13.74V13.94ZM21.3483 13.7979C21.3084 11.9256 21.5077 9.7719 21.827 7.81611L21.6296 7.78389C21.3089 9.7481 21.1081 11.9144 21.1483 13.8021L21.3483 13.7979ZM21.7307 7.70003C20.0493 7.65999 18.3649 7.7 16.6883 7.7V7.9C18.3717 7.9 20.0473 7.86 21.7259 7.89997L21.7307 7.70003ZM16.5898 7.78276C16.3087 9.38906 16.2283 10.5949 16.2283 11.96H16.4283C16.4283 10.6051 16.5079 9.41094 16.7868 7.81724L16.5898 7.78276ZM37.1883 21.44V0.439998H36.9883V21.44H37.1883ZM37.0883 0.539998H46.4883V0.339998H37.0883V0.539998ZM46.3883 0.439998V7.04H46.5883V0.439998H46.3883ZM46.4883 7.14H48.8883V6.94H46.4883V7.14ZM48.7883 7.04V16.24H48.9883V7.04H48.7883ZM48.8883 16.14H46.4883V16.34H48.8883V16.14ZM46.3883 16.24V21.44H46.5883V16.24H46.3883ZM46.4883 21.34H37.0883V21.54H46.4883V21.34ZM61.093 24.6V24.5H60.993V24.6H61.093ZM99.293 24.6H99.393V24.5H99.293V24.6ZM99.293 37.56V37.66H99.393V37.56H99.293ZM87.893 37.56H87.793V37.66H87.893V37.56ZM87.893 32H87.993V31.9H87.893V32ZM61.093 32H60.993V32.1H61.093V32ZM57.893 1.52L57.8818 1.42062L57.7839 1.43158L57.7934 1.52966L57.893 1.52ZM84.773 23.6L84.7618 23.6994L84.835 23.7076L84.8646 23.6401L84.773 23.6ZM74.813 22.48L74.7189 22.4461L74.676 22.5652L74.8018 22.5794L74.813 22.48ZM73.053 9L73.049 8.90008L72.9656 8.90341L72.954 8.98598L73.053 9ZM68.853 23.4L68.8416 23.4993L68.9147 23.5077L68.9444 23.4404L68.853 23.4ZM59.093 22.28L58.9991 22.2454L58.9551 22.3648L59.0816 22.3793L59.093 22.28ZM62.813 9.48L62.9113 9.49809L62.9342 9.37365L62.8078 9.38013L62.813 9.48ZM58.693 9.76L58.5934 9.76966L58.6028 9.86645L58.6998 9.85976L58.693 9.76ZM89.493 23.6H89.393V23.7H89.493V23.6ZM89.493 0.439998V0.339998H89.393V0.439998H89.493ZM99.293 0.439998H99.393V0.339998H99.293V0.439998ZM99.293 7.96H99.193V8.06H99.293V7.96ZM101.693 7.96H101.793V7.86H101.693V7.96ZM101.693 17.36V17.46H101.793V17.36H101.693ZM99.293 17.36V17.26H99.193V17.36H99.293ZM99.293 23.6V23.7H99.393V23.6H99.293ZM61.093 24.7H99.293V24.5H61.093V24.7ZM99.193 24.6V37.56H99.393V24.6H99.193ZM99.293 37.46H87.893V37.66H99.293V37.46ZM87.993 37.56V32H87.793V37.56H87.993ZM87.893 31.9H61.093V32.1H87.893V31.9ZM61.193 32V24.6H60.993V32H61.193ZM57.9041 1.61938C63.621 0.979722 71.4573 0.499998 76.573 0.499998V0.299998C71.4487 0.299998 63.6049 0.780276 57.8818 1.42062L57.9041 1.61938ZM76.573 0.499998C81.0525 0.499998 84.006 0.97131 85.8394 2.13444C87.659 3.28882 88.393 5.138 88.393 7.96H88.593C88.593 5.102 87.8469 3.17117 85.9465 1.96556C84.0599 0.768687 81.0534 0.299998 76.573 0.299998V0.499998ZM88.393 7.96C88.393 12.8231 87.3572 17.4493 84.6814 23.5599L84.8646 23.6401C87.5487 17.5107 88.593 12.8569 88.593 7.96H88.393ZM84.7841 23.5006L74.8241 22.3806L74.8018 22.5794L84.7618 23.6994L84.7841 23.5006ZM74.9071 22.5139C76.0669 19.2943 76.8978 16.9318 77.4387 15.1389C77.9792 13.3474 78.233 12.1156 78.233 11.16H78.033C78.033 12.0844 77.7868 13.2926 77.2472 15.0811C76.7081 16.8682 75.879 19.2257 74.7189 22.4461L74.9071 22.5139ZM78.233 11.16C78.233 10.3282 78.0506 9.74115 77.6019 9.3681C77.1584 8.99939 76.4774 8.86 75.533 8.86V9.06C76.4686 9.06 77.0876 9.20061 77.474 9.5219C77.8553 9.83885 78.033 10.3518 78.033 11.16H78.233ZM75.533 8.86C74.8929 8.86 74.0512 8.85999 73.049 8.90008L73.057 9.09992C74.0548 9.06001 74.893 9.06 75.533 9.06V8.86ZM72.954 8.98598C72.3153 13.4964 70.878 18.5676 68.7615 23.3596L68.9444 23.4404C71.068 18.6324 72.5106 13.5436 73.152 9.01402L72.954 8.98598ZM68.8644 23.3007L59.1044 22.1807L59.0816 22.3793L68.8416 23.4993L68.8644 23.3007ZM59.1868 22.3146C60.988 17.4312 62.27 12.9855 62.9113 9.49809L62.7146 9.46191C62.076 12.9345 60.7979 17.3688 58.9991 22.2454L59.1868 22.3146ZM62.8078 9.38013C61.2468 9.46019 59.8439 9.58039 58.6861 9.66024L58.6998 9.85976C59.862 9.77961 61.2592 9.65981 62.8181 9.57987L62.8078 9.38013ZM58.7925 9.75034L57.9925 1.51033L57.7934 1.52966L58.5934 9.76966L58.7925 9.75034ZM89.593 23.6V0.439998H89.393V23.6H89.593ZM89.493 0.539998H99.293V0.339998H89.493V0.539998ZM99.193 0.439998V7.96H99.393V0.439998H99.193ZM99.293 8.06H101.693V7.86H99.293V8.06ZM101.593 7.96V17.36H101.793V7.96H101.593ZM101.693 17.26H99.293V17.46H101.693V17.26ZM99.193 17.36V23.6H99.393V17.36H99.193ZM99.293 23.5H89.493V23.7H99.293V23.5ZM140.898 0.439998V0.339998H140.798V0.439998H140.898ZM151.698 0.439998H151.798V0.339998H151.698V0.439998ZM151.698 12.8H151.598V12.9H151.698V12.8ZM154.498 12.8H154.598V12.7H154.498V12.8ZM154.498 22.8V22.9H154.598V22.8H154.498ZM151.698 22.8V22.7H151.598V22.8H151.698ZM151.698 37.56V37.66H151.798V37.56H151.698ZM140.898 37.56H140.798V37.66H140.898V37.56ZM111.098 35.72H110.998V35.8164L111.094 35.8199L111.098 35.72ZM116.098 1.12V1.02H116.039L116.011 1.07083L116.098 1.12ZM127.098 1.12L127.188 1.16229L127.255 1.02H127.098V1.12ZM124.418 7.92L124.322 7.89095L124.271 8.05981L124.442 8.01701L124.418 7.92ZM139.458 35.68L139.461 35.7799L139.558 35.7764V35.68H139.458ZM128.658 36.08H128.558V36.1838L128.661 36.1799L128.658 36.08ZM122.498 17.64L122.472 17.5434L122.405 17.5613L122.398 17.6306L122.498 17.64ZM121.898 36.12L121.894 36.2199L121.998 36.2238V36.12H121.898ZM140.898 0.539998H151.698V0.339998H140.898V0.539998ZM151.598 0.439998V12.8H151.798V0.439998H151.598ZM151.698 12.9H154.498V12.7H151.698V12.9ZM154.398 12.8V22.8H154.598V12.8H154.398ZM154.498 22.7H151.698V22.9H154.498V22.7ZM151.598 22.8V37.56H151.798V22.8H151.598ZM151.698 37.46H140.898V37.66H151.698V37.46ZM140.998 37.56V0.439998H140.798V37.56H140.998ZM111.198 35.72C111.198 13.1602 112.359 7.9442 116.185 1.16917L116.011 1.07083C112.156 7.8958 110.998 13.1598 110.998 35.72H111.198ZM116.098 1.22H127.098V1.02H116.098V1.22ZM127.007 1.07771C125.886 3.48035 125.004 5.64496 124.322 7.89095L124.513 7.94905C125.192 5.71504 126.07 3.55965 127.188 1.16229L127.007 1.07771ZM124.442 8.01701C126.355 7.5388 128.267 7.3 129.938 7.3V7.1C128.249 7.1 126.321 7.3412 124.393 7.82298L124.442 8.01701ZM129.938 7.3C133.483 7.3 135.823 8.14601 137.286 10.2177C138.756 12.3 139.358 15.6415 139.358 20.68H139.558C139.558 15.6385 138.959 12.24 137.449 10.1023C135.932 7.95398 133.512 7.1 129.938 7.1V7.3ZM139.358 20.68V35.68H139.558V20.68H139.358ZM139.454 35.5801L128.654 35.9801L128.661 36.1799L139.461 35.7799L139.454 35.5801ZM128.758 36.08V20.48H128.558V36.08H128.758ZM128.758 20.48C128.758 19.2555 128.568 18.4014 128.061 17.8568C127.551 17.3102 126.745 17.1 125.578 17.1V17.3C126.731 17.3 127.464 17.5098 127.915 17.9932C128.367 18.4786 128.558 19.2645 128.558 20.48H128.758ZM125.578 17.1C124.728 17.1 123.68 17.2213 122.472 17.5434L122.523 17.7366C123.716 17.4187 124.747 17.3 125.578 17.3V17.1ZM122.398 17.6306C121.958 22.2755 121.798 28.0393 121.798 36.12H121.998C121.998 28.0407 122.158 22.2845 122.597 17.6494L122.398 17.6306ZM121.901 36.0201L111.101 35.6201L111.094 35.8199L121.894 36.2199L121.901 36.0201ZM194.502 0.239998L194.504 0.140014L194.402 0.138196V0.239998H194.502ZM205.702 0.439998H205.802V0.341767L205.704 0.340014L205.702 0.439998ZM205.702 27.96V28.06H205.802V27.96H205.702ZM194.502 27.96H194.402V28.06H194.502V27.96ZM164.702 24.4H164.602V24.4962L164.698 24.4999L164.702 24.4ZM168.862 8.84L168.93 8.91355L169.119 8.74H168.862V8.84ZM164.902 8.84H164.802V8.94H164.902V8.84ZM164.902 1.24V1.14H164.802V1.24H164.902ZM192.862 1.24H192.962V1.14H192.862V1.24ZM192.862 8.84V8.94H192.962V8.84H192.862ZM179.422 8.84V8.74H179.377L179.347 8.77415L179.422 8.84ZM177.902 10.68L177.822 10.6209L177.662 10.839L177.925 10.7774L177.902 10.68ZM193.062 24.4L193.066 24.4999L193.162 24.4962V24.4H193.062ZM182.862 24.8H182.762V24.904L182.866 24.8999L182.862 24.8ZM175.102 18.96L175.067 18.8663L175.009 18.8881L175.003 18.9503L175.102 18.96ZM174.902 24.8L174.898 24.8999L175.002 24.904V24.8H174.902ZM167.702 37.56H167.602V37.66H167.702V37.56ZM167.702 26V25.9H167.602V26H167.702ZM179.102 26H179.202V25.9H179.102V26ZM179.102 29.36H179.002V29.46H179.102V29.36ZM206.502 29.36H206.602V29.26H206.502V29.36ZM206.502 37.56V37.66H206.602V37.56H206.502ZM194.501 0.339982L205.701 0.539982L205.704 0.340014L194.504 0.140014L194.501 0.339982ZM205.602 0.439998V27.96H205.802V0.439998H205.602ZM205.702 27.86H194.502V28.06H205.702V27.86ZM194.602 27.96V0.239998H194.402V27.96H194.602ZM164.802 24.4C164.802 19.5215 165.083 16.3432 165.739 14.0374C166.393 11.7377 167.422 10.303 168.93 8.91355L168.795 8.76644C167.263 10.177 166.212 11.6423 165.546 13.9826C164.882 16.3168 164.602 19.5185 164.602 24.4H164.802ZM168.862 8.74H164.902V8.94H168.862V8.74ZM165.002 8.84V1.24H164.802V8.84H165.002ZM164.902 1.34H192.862V1.14H164.902V1.34ZM192.762 1.24V8.84H192.962V1.24H192.762ZM192.862 8.74H179.422V8.94H192.862V8.74ZM179.347 8.77415C178.787 9.41375 178.265 10.0169 177.822 10.6209L177.983 10.7391C178.42 10.1431 178.937 9.54625 179.498 8.90585L179.347 8.77415ZM177.925 10.7774C179.797 10.3392 181.59 10.14 183.542 10.14V9.94C181.575 9.94 179.767 10.1408 177.88 10.5826L177.925 10.7774ZM183.542 10.14C187.018 10.14 189.371 10.6206 190.854 11.6911C192.328 12.7551 192.962 14.4175 192.962 16.84H193.162C193.162 14.3825 192.517 12.6449 190.971 11.5289C189.434 10.4194 187.026 9.94 183.542 9.94V10.14ZM192.962 16.84V24.4H193.162V16.84H192.962ZM193.058 24.3001L182.858 24.7001L182.866 24.8999L193.066 24.4999L193.058 24.3001ZM182.962 24.8V20.32H182.762V24.8H182.962ZM182.962 20.32C182.962 19.5948 182.853 18.9965 182.405 18.5862C181.961 18.1794 181.207 17.98 179.982 17.98V18.18C181.198 18.18 181.884 18.3806 182.27 18.7338C182.652 19.0835 182.762 19.6052 182.762 20.32H182.962ZM179.982 17.98C178.532 17.98 176.8 18.2217 175.067 18.8663L175.137 19.0537C176.845 18.4183 178.553 18.18 179.982 18.18V17.98ZM175.003 18.9503C174.842 20.5954 174.802 22.5196 174.802 24.8H175.002C175.002 22.5204 175.042 20.6046 175.202 18.9697L175.003 18.9503ZM174.906 24.7001L164.706 24.3001L164.698 24.4999L174.898 24.8999L174.906 24.7001ZM167.802 37.56V26H167.602V37.56H167.802ZM167.702 26.1H179.102V25.9H167.702V26.1ZM179.002 26V29.36H179.202V26H179.002ZM179.102 29.46H206.502V29.26H179.102V29.46ZM206.402 29.36V37.56H206.602V29.36H206.402ZM206.502 37.46H167.702V37.66H206.502V37.46ZM233.827 17.64L233.731 17.6107L233.694 17.7319L233.821 17.7398L233.827 17.64ZM217.987 10.08L217.887 10.0886L217.896 10.1896L217.997 10.1795L217.987 10.08ZM217.307 2.24L217.291 2.14126L217.199 2.156L217.207 2.24864L217.307 2.24ZM244.107 18.28L244.101 18.3798L244.177 18.3845L244.202 18.3124L244.107 18.28ZM216.307 26.28H216.207V26.38H216.307V26.28ZM216.307 19.28V19.18H216.207V19.28H216.307ZM221.307 19.28V19.38H221.407V19.28H221.307ZM221.307 12.48V12.38H221.207V12.48H221.307ZM231.707 12.48H231.807V12.38H231.707V12.48ZM231.707 19.28H231.607V19.38H231.707V19.28ZM247.507 19.28V19.38H247.607V19.28H247.507ZM247.507 0.439998V0.339998H247.407V0.439998H247.507ZM257.707 0.439998H257.807V0.339998H257.707V0.439998ZM257.707 11.2H257.607V11.3H257.707V11.2ZM260.107 11.2H260.207V11.1H260.107V11.2ZM260.107 21.2V21.3H260.207V21.2H260.107ZM257.707 21.2V21.1H257.607V21.2H257.707ZM257.707 28.56V28.66H257.807V28.56H257.707ZM247.507 28.56H247.407V28.66H247.507V28.56ZM247.507 26.28H247.607V26.18H247.507V26.28ZM218.307 37.56H218.207V37.66H218.307V37.56ZM218.307 27.28V27.18H218.207V27.28H218.307ZM230.107 27.28H230.207V27.18H230.107V27.28ZM230.107 29.96H230.007V30.06H230.107V29.96ZM258.507 29.96H258.607V29.86H258.507V29.96ZM258.507 37.56V37.66H258.607V37.56H258.507ZM233.923 17.6693C235.002 14.1512 235.367 12.4573 235.367 11.28H235.167C235.167 12.4227 234.812 14.0888 233.731 17.6107L233.923 17.6693ZM235.367 11.28C235.367 10.4118 235.206 9.82492 234.656 9.47091C234.387 9.2977 234.033 9.18593 233.578 9.11676C233.122 9.04752 232.559 9.02 231.867 9.02V9.22C232.555 9.22 233.107 9.24748 233.548 9.31449C233.989 9.38156 234.312 9.48729 234.548 9.63909C235.008 9.93508 235.167 10.4281 235.167 11.28H235.367ZM231.867 9.02C228.141 9.02 225.137 9.2605 217.977 9.9805L217.997 10.1795C225.157 9.4595 228.153 9.22 231.867 9.22V9.02ZM218.087 10.0714L217.407 2.23136L217.207 2.24864L217.887 10.0886L218.087 10.0714ZM217.323 2.33873C223.8 1.29926 228.954 0.819999 233.547 0.819999V0.619999C228.94 0.619999 223.774 1.10073 217.291 2.14126L217.323 2.33873ZM233.547 0.819999C235.995 0.819999 237.984 0.922472 239.591 1.17504C241.198 1.42766 242.416 1.82949 243.327 2.42376C245.138 3.60508 245.767 5.56943 245.767 8.76H245.967C245.967 5.55057 245.336 3.49492 243.437 2.25624C242.493 1.64051 241.244 1.23234 239.622 0.977462C238 0.722526 235.999 0.619999 233.547 0.619999V0.819999ZM245.767 8.76C245.767 11.8259 245.05 15.2146 244.012 18.2476L244.202 18.3124C245.244 15.2654 245.967 11.8541 245.967 8.76H245.767ZM244.113 18.1802L233.833 17.5402L233.821 17.7398L244.101 18.3798L244.113 18.1802ZM216.407 26.28V19.28H216.207V26.28H216.407ZM216.307 19.38H221.307V19.18H216.307V19.38ZM221.407 19.28V12.48H221.207V19.28H221.407ZM221.307 12.58H231.707V12.38H221.307V12.58ZM231.607 12.48V19.28H231.807V12.48H231.607ZM231.707 19.38H247.507V19.18H231.707V19.38ZM247.607 19.28V0.439998H247.407V19.28H247.607ZM247.507 0.539998H257.707V0.339998H247.507V0.539998ZM257.607 0.439998V11.2H257.807V0.439998H257.607ZM257.707 11.3H260.107V11.1H257.707V11.3ZM260.007 11.2V21.2H260.207V11.2H260.007ZM260.107 21.1H257.707V21.3H260.107V21.1ZM257.607 21.2V28.56H257.807V21.2H257.607ZM257.707 28.46H247.507V28.66H257.707V28.46ZM247.607 28.56V26.28H247.407V28.56H247.607ZM247.507 26.18H216.307V26.38H247.507V26.18ZM218.407 37.56V27.28H218.207V37.56H218.407ZM218.307 27.38H230.107V27.18H218.307V27.38ZM230.007 27.28V29.96H230.207V27.28H230.007ZM230.107 30.06H258.507V29.86H230.107V30.06ZM258.407 29.96V37.56H258.607V29.96H258.407ZM258.507 37.46H218.307V37.66H258.507V37.46Z" fill="#FDFFFD" fill-opacity="0.2" mask="url(#path-1-outside-1_496_1856)"/>
</g>
<defs>
<filter id="filter0_d_496_1856" x="0.888306" y="0.23999" width="263.219" height="45.32" filterUnits="userSpaceOnUse" color-interpolation-filters="sRGB">
<feFlood flood-opacity="0" result="BackgroundImageFix"/>
<feColorMatrix in="SourceAlpha" type="matrix" values="0 0 0 0 0 0 0 0 0 0 0 0 0 0 0 0 0 0 127 0" result="hardAlpha"/>
<feOffset dy="4"/>
<feGaussianBlur stdDeviation="2"/>
<feComposite in2="hardAlpha" operator="out"/>
<feColorMatrix type="matrix" values="0 0 0 0 0 0 0 0 0 0 0 0 0 0 0 0 0 0 0.25 0"/>
<feBlend mode="normal" in2="BackgroundImageFix" result="effect1_dropShadow_496_1856"/>
<feBlend mode="normal" in="SourceGraphic" in2="effect1_dropShadow_496_1856" result="shape"/>
</filter>
</defs>
</svg>
