<svg width="193" height="29" viewBox="0 0 193 29" fill="none" xmlns="http://www.w3.org/2000/svg">
<path d="M31.9912 17.58V24.45H11.7412V25.32H32.4412V28.92H3.49121V21.75H23.7412V20.88H3.34121V17.58H31.9912ZM0.791211 1.62C7.93121 1.05 16.6012 1.05 23.7412 1.62L23.4412 6.99L20.6812 6.81C20.4712 8.13 20.4112 9.54 20.4412 10.89C21.7312 10.83 22.9012 10.77 23.7412 10.71L24.0412 16.17C20.5912 16.47 15.4012 16.68 11.2312 16.68C4.12121 16.68 1.69121 15.24 1.69121 11.01C1.69121 9.66 1.81121 8.31 2.05121 6.93C1.72121 6.93 1.42121 6.96 1.09121 6.99L0.791211 1.62ZM9.37121 9.72C9.37121 10.92 9.64121 11.13 11.1412 11.13C11.6812 11.13 12.3412 11.13 13.0612 11.1C13.0312 9.69 13.1812 8.07 13.4212 6.6C12.1612 6.57 10.9012 6.6 9.64121 6.6C9.43121 7.8 9.37121 8.7 9.37121 9.72ZM24.9412 16.83V1.08H31.9912V6.03H33.7912V12.93H31.9912V16.83H24.9412ZM42.9447 19.2H71.5947V28.92H63.0447V24.75H42.9447V19.2ZM40.5447 1.89C44.8347 1.41 50.7147 1.05 54.5547 1.05C61.2747 1.05 63.4947 2.46 63.4947 6.72C63.4947 10.38 62.7147 13.86 60.7047 18.45L53.2347 17.61C54.9747 12.78 55.7247 10.53 55.7247 9.12C55.7247 7.89 55.1847 7.47 53.7747 7.47C53.2947 7.47 52.6647 7.47 51.9147 7.5C51.4347 10.89 50.3547 14.7 48.7647 18.3L41.4447 17.46C42.7947 13.8 43.7547 10.47 44.2347 7.86C43.0647 7.92 42.0147 8.01 41.1447 8.07L40.5447 1.89ZM64.2447 18.45V1.08H71.5947V6.72H73.3947V13.77H71.5947V18.45H64.2447Z" fill="#006E7F"/>
<path d="M102.798 1.08H110.898V10.35H112.998V17.85H110.898V28.92H102.798V1.08ZM80.4482 27.54C80.4482 10.62 81.3182 6.69 84.1982 1.59H92.4482C91.6082 3.39 90.9482 5.01 90.4382 6.69C91.8782 6.33 93.3182 6.15 94.5782 6.15C99.9182 6.15 101.718 8.7 101.718 16.26V27.51L93.6182 27.81V16.11C93.6182 14.28 93.0482 13.65 91.3082 13.65C90.6782 13.65 89.8982 13.74 88.9982 13.98C88.6682 17.46 88.5482 21.78 88.5482 27.84L80.4482 27.54ZM143.002 0.929998L151.402 1.08V21.72H143.002V0.929998ZM120.652 19.05C120.652 11.73 121.492 9.48 123.772 7.38H120.802V1.68H141.772V7.38H131.692C131.272 7.86 130.882 8.31 130.552 8.76C131.962 8.43 133.312 8.28 134.782 8.28C140.002 8.28 141.922 9.72 141.922 13.38V19.05L134.272 19.35V15.99C134.272 14.91 133.942 14.31 132.112 14.31C131.032 14.31 129.742 14.49 128.452 14.97C128.332 16.2 128.302 17.64 128.302 19.35L120.652 19.05ZM122.902 28.92V20.25H131.452V22.77H152.002V28.92H122.902ZM172.495 13.98C173.305 11.34 173.575 10.08 173.575 9.21C173.575 7.92 173.095 7.59 171.025 7.59C168.235 7.59 165.985 7.77 160.615 8.31L160.105 2.43C164.965 1.65 168.835 1.29 172.285 1.29C179.635 1.29 181.525 2.52 181.525 7.32C181.525 9.63 180.985 12.18 180.205 14.46L172.495 13.98ZM159.355 20.46V15.21H163.105V10.11H170.905V15.21H182.755V1.08H190.405V9.15H192.205V16.65H190.405V22.17H182.755V20.46H159.355ZM160.855 28.92V21.21H169.705V23.22H191.005V28.92H160.855Z" fill="#B22727"/>
</svg>
