<svg width="257" height="38" viewBox="0 0 257 38" fill="none" xmlns="http://www.w3.org/2000/svg">
<path d="M42.4883 22.44V31.6H15.4883V32.76H43.0883V37.56H4.48828V28H31.4883V26.84H4.28828V22.44H42.4883ZM0.888281 1.16C10.4083 0.399998 21.9683 0.399998 31.4883 1.16L31.0883 8.32L27.4083 8.08C27.1283 9.84 27.0483 11.72 27.0883 13.52C28.8083 13.44 30.3683 13.36 31.4883 13.28L31.8883 20.56C27.2883 20.96 20.3683 21.24 14.8083 21.24C5.32828 21.24 2.08828 19.32 2.08828 13.68C2.08828 11.88 2.24828 10.08 2.56828 8.24C2.12828 8.24 1.72828 8.28 1.28828 8.32L0.888281 1.16ZM12.3283 11.96C12.3283 13.56 12.6883 13.84 14.6883 13.84C15.4083 13.84 16.2883 13.84 17.2483 13.8C17.2083 11.92 17.4083 9.76 17.7283 7.8C16.0483 7.76 14.3683 7.8 12.6883 7.8C12.4083 9.4 12.3283 10.6 12.3283 11.96ZM33.0883 21.44V0.439998H42.4883V7.04H44.8883V16.24H42.4883V21.44H33.0883ZM57.093 24.6H95.293V37.56H83.893V32H57.093V24.6ZM53.893 1.52C59.613 0.879999 67.453 0.399998 72.573 0.399998C81.533 0.399998 84.493 2.28 84.493 7.96C84.493 12.84 83.453 17.48 80.773 23.6L70.813 22.48C73.133 16.04 74.133 13.04 74.133 11.16C74.133 9.52 73.413 8.96 71.533 8.96C70.893 8.96 70.053 8.96 69.053 9C68.413 13.52 66.973 18.6 64.853 23.4L55.093 22.28C56.893 17.4 58.173 12.96 58.813 9.48C57.253 9.56 55.853 9.68 54.693 9.76L53.893 1.52ZM85.493 23.6V0.439998H95.293V7.96H97.693V17.36H95.293V23.6H85.493Z" fill="#006E7F"/>
<path d="M136.898 0.439998H147.698V12.8H150.498V22.8H147.698V37.56H136.898V0.439998ZM107.098 35.72C107.098 13.16 108.258 7.92 112.098 1.12H123.098C121.978 3.52 121.098 5.68 120.418 7.92C122.338 7.44 124.258 7.2 125.938 7.2C133.058 7.2 135.458 10.6 135.458 20.68V35.68L124.658 36.08V20.48C124.658 18.04 123.898 17.2 121.578 17.2C120.738 17.2 119.698 17.32 118.498 17.64C118.058 22.28 117.898 28.04 117.898 36.12L107.098 35.72ZM190.502 0.239998L201.702 0.439998V27.96H190.502V0.239998ZM160.702 24.4C160.702 14.64 161.822 11.64 164.862 8.84H160.902V1.24H188.862V8.84H175.422C174.862 9.48 174.342 10.08 173.902 10.68C175.782 10.24 177.582 10.04 179.542 10.04C186.502 10.04 189.062 11.96 189.062 16.84V24.4L178.862 24.8V20.32C178.862 18.88 178.422 18.08 175.982 18.08C174.542 18.08 172.822 18.32 171.102 18.96C170.942 20.6 170.902 22.52 170.902 24.8L160.702 24.4ZM163.702 37.56V26H175.102V29.36H202.502V37.56H163.702ZM229.827 17.64C230.907 14.12 231.267 12.44 231.267 11.28C231.267 9.56 230.627 9.12 227.867 9.12C224.147 9.12 221.147 9.36 213.987 10.08L213.307 2.24C219.787 1.2 224.947 0.719999 229.547 0.719999C239.347 0.719999 241.867 2.36 241.867 8.76C241.867 11.84 241.147 15.24 240.107 18.28L229.827 17.64ZM212.307 26.28V19.28H217.307V12.48H227.707V19.28H243.507V0.439998H253.707V11.2H256.107V21.2H253.707V28.56H243.507V26.28H212.307ZM214.307 37.56V27.28H226.107V29.96H254.507V37.56H214.307Z" fill="#B22727"/>
</svg>
